<svg width="16" height="28" viewBox="0 0 16 28" fill="none" xmlns="http://www.w3.org/2000/svg">
<path fill-rule="evenodd" clip-rule="evenodd" d="M11.4127 12.9505C11.9247 13.3751 12.1807 13.7928 12.1807 14.2037C12.1807 14.6146 11.9141 15.0802 11.3808 15.6007L1.44239 25.6012C0.928488 26.1184 0.920188 26.9508 1.42368 27.478C1.91226 27.9897 2.7231 28.0084 3.23474 27.5198C3.24169 27.5132 3.24857 27.5064 3.25537 27.4996L15.1442 15.6238C15.9256 14.8431 15.9263 13.5768 15.1457 12.7953C15.1435 12.7931 15.1413 12.7909 15.1391 12.7887L3.06275 0.811666C2.54712 0.300275 1.71456 0.30371 1.20317 0.81934C1.19611 0.826454 1.18914 0.833648 1.18225 0.840921C0.667384 1.38435 0.679354 2.23908 1.20923 2.76787L11.4127 12.9505Z" fill="white"/>
</svg>
