<svg width="16" height="28" viewBox="0 0 16 28" fill="none" xmlns="http://www.w3.org/2000/svg">
<path fill-rule="evenodd" clip-rule="evenodd" d="M4.58723 12.9505C4.07525 13.3751 3.81926 13.7928 3.81926 14.2037C3.81926 14.6146 4.08587 15.0802 4.61911 15.6007L14.5576 25.6012C15.0715 26.1184 15.0798 26.9508 14.5763 27.478C14.0877 27.9897 13.2768 28.0084 12.7652 27.5198C12.7583 27.5132 12.7514 27.5064 12.7446 27.4996L0.855788 15.6238C0.0743157 14.8431 0.0736281 13.5768 0.854252 12.7953C0.856452 12.7931 0.858657 12.7909 0.860867 12.7887L12.9372 0.811666C13.4528 0.300275 14.2854 0.30371 14.7968 0.81934C14.8038 0.826454 14.8108 0.833648 14.8177 0.840921C15.3326 1.38435 15.3206 2.23908 14.7907 2.76787L4.58723 12.9505Z" fill="white"/>
</svg>
