<svg width="362" height="151" viewBox="0 0 362 151" fill="none" xmlns="http://www.w3.org/2000/svg">
<rect x="0.5" y="0.5" width="361" height="150" rx="9.5" fill="#FBFCFD" stroke="#EEEFF1"/>
<g clip-path="url(#clip0_1_128)">
<path fill-rule="evenodd" clip-rule="evenodd" d="M46.56 43C46.7077 43.0875 53.2061 45.0454 59.5672 46.9552L60.3612 47.1936C65.5111 48.7394 70.3919 50.2007 71.5236 50.5486C71.8368 50.6449 72.0639 50.7572 72.2215 50.9355C72.4606 51.2058 72.4184 51.3466 72.57 51.6635V78.0065C72.2937 78.7745 72.8968 86.7289 67.8248 94.2917C67.1587 95.2849 66.6896 95.9332 65.9344 96.7916L64.6876 98.1474C63.5809 99.2817 62.346 100.349 60.9248 101.375C58.1657 103.367 55.0302 104.937 51.7714 106.205C50.9004 106.544 50.0824 106.839 49.1892 107.146C48.5598 107.362 47.0363 107.766 46.5842 108.035H46.0136C45.6393 107.812 43.9383 107.339 43.379 107.147C42.487 106.843 41.6662 106.543 40.7948 106.209C36.1159 104.417 31.319 101.716 27.8578 98.1177L26.1899 96.2632C23.3494 92.8029 21.6104 88.7457 20.6938 84.2532C20.4945 83.2765 20.3361 82.2129 20.2325 81.1949C20.1811 80.6911 20.0655 78.1469 20 77.9589V51.662C20.1531 51.3438 20.1077 51.2089 20.3499 50.9371C20.5119 50.7554 20.7487 50.6462 21.0495 50.5541C21.6093 50.3826 22.1644 50.2188 22.7146 50.0484C28.2158 48.3452 33.8509 46.6946 39.3691 45.0277C39.5627 44.9692 40.9975 44.5446 42.4846 44.0984L43.0424 43.9307C44.5241 43.4843 45.9095 43.0593 46.0098 43H46.56ZM46.284 45.6429C46.0298 45.641 43.723 46.3893 43.2997 46.5202C37.436 48.334 31.4197 50.0413 25.5585 51.8641C25.0356 52.0268 22.8677 52.6422 22.5749 52.7825C22.5147 55.9304 22.5726 59.1391 22.5726 62.2937V71.8323C22.5726 78.1708 22.4026 83.25 24.7313 88.7254C25.7291 91.0711 26.9452 93.0589 28.3013 94.6941C28.9769 95.5088 29.8489 96.4781 30.6186 97.1464L31.2469 97.711C34.353 100.512 38.6343 102.667 42.6656 104.176C43.1502 104.357 45.956 105.385 46.2842 105.382C46.6461 105.379 49.3555 104.37 49.8592 104.185C57.3464 101.44 64.6435 96.5613 67.8686 88.809C70.2104 83.1799 69.9938 78.3641 69.9984 71.8864C70.0007 68.7069 69.9996 65.5274 70.0018 62.3479C70.004 59.1687 70.053 55.9495 70.0027 52.7752L67.0541 51.8755C66.0731 51.5825 65.0871 51.2901 64.0979 50.9831C62.1227 50.3701 60.1618 49.8148 58.1841 49.2027C57.6514 49.0378 46.5444 45.6449 46.284 45.6429Z" fill="#1253A2"/>
<path fill-rule="evenodd" clip-rule="evenodd" d="M65.2715 56.8742L65.272 75.084C65.272 77.1038 65.2809 78.9989 65.0312 80.9826C63.69 91.6352 55.7054 96.5898 47.1746 99.6571C46.6647 99.8404 46.5274 99.9272 45.9587 99.9489C44.5302 100.003 44.2982 101.936 45.56 102.418C46.4782 102.77 47.1535 102.379 47.9801 102.088C55.1308 99.5777 60.5465 96.4644 64.1951 90.8267C65.7492 88.4254 66.924 85.3279 67.4587 81.9543C68.0466 78.2449 67.8391 73.9808 67.8391 70.1522C67.8391 66.0875 67.8391 62.0228 67.8391 57.9581C67.8391 55.9836 68.1721 55.0086 66.7023 54.5585L51.5074 49.9707C49.9666 49.5108 48.3897 49.0549 46.8448 48.5661C45.8601 48.2545 45.0884 48.7674 45.0129 49.6097C44.9117 50.7376 45.9166 50.9611 46.5806 51.1581C49.7139 52.0876 52.846 53.0367 55.9531 53.9792L64.993 56.6985C65.2007 56.7615 65.1861 56.7207 65.2715 56.8742Z" fill="black"/>
<path fill-rule="evenodd" clip-rule="evenodd" d="M26.2538 55.1314C25.2194 55.4441 25.3262 56.3342 25.3262 57.4703V73.7291C25.3262 75.8393 25.2742 77.9848 25.463 80.0708C25.977 85.7476 27.8372 89.9032 31.378 93.6769C32.0319 94.3738 33.2125 95.3608 33.9825 95.9504C34.3278 96.2149 34.6708 96.4233 35.2236 96.2718C36.0679 96.0407 36.4668 95.0118 35.8758 94.2184L34.5489 93.1081C33.4401 92.2172 31.9677 90.5977 31.0992 89.24C27.6348 83.8239 27.8859 79.1219 27.8859 72.9161L27.8864 56.6562C27.8877 56.1007 27.8285 55.7476 27.51 55.4341C27.2241 55.1526 26.7659 54.9767 26.2538 55.1314Z" fill="black"/>
<path fill-rule="evenodd" clip-rule="evenodd" d="M42.3829 82.3209C40.5475 80.5772 38.1483 78.0973 36.2982 76.2368C35.7615 75.6971 34.7901 75.4587 34.235 76.2039C33.5373 77.1405 34.2304 77.8279 34.6867 78.2819L40.7838 84.3788C41.1553 84.7484 41.7754 85.6404 42.7176 85.3877C43.2619 85.2418 44.0397 84.3224 44.3895 83.9735L56.6168 71.7583C57.1357 71.2394 57.6138 70.7589 58.135 70.2418C59.3718 69.0145 58.1752 67.6043 57.0224 67.9346C56.4251 68.1058 55.0564 69.6489 54.5925 70.1136C52.5482 72.1608 50.5398 74.164 48.4955 76.2106C46.4554 78.253 44.4443 80.3241 42.3829 82.3209Z" fill="#1253A2"/>
</g>
<path d="M95.6022 38.4H103.36V40.596H98.0682V43.224C98.2722 43.188 98.5182 43.152 98.8062 43.116C99.1062 43.08 99.4002 43.062 99.6882 43.062C100.36 43.062 100.978 43.128 101.542 43.26C102.106 43.392 102.586 43.614 102.982 43.926C103.39 44.226 103.708 44.628 103.936 45.132C104.164 45.624 104.278 46.23 104.278 46.95C104.278 47.658 104.158 48.276 103.918 48.804C103.69 49.332 103.354 49.77 102.91 50.118C102.478 50.466 101.95 50.73 101.326 50.91C100.714 51.09 100.024 51.18 99.2562 51.18C99.0522 51.18 98.7942 51.174 98.4822 51.162C98.1822 51.15 97.8582 51.132 97.5102 51.108C97.1742 51.084 96.8382 51.054 96.5022 51.018C96.1662 50.982 95.8662 50.934 95.6022 50.874V38.4ZM99.4362 49.146C99.7482 49.146 100.036 49.11 100.3 49.038C100.576 48.954 100.816 48.834 101.02 48.678C101.224 48.51 101.386 48.3 101.506 48.048C101.626 47.796 101.686 47.49 101.686 47.13C101.686 46.698 101.62 46.35 101.488 46.086C101.356 45.822 101.176 45.618 100.948 45.474C100.72 45.318 100.456 45.216 100.156 45.168C99.8682 45.12 99.5562 45.096 99.2202 45.096C99.0522 45.096 98.8422 45.114 98.5902 45.15C98.3382 45.174 98.1642 45.198 98.0682 45.222V49.056C98.2002 49.092 98.3982 49.116 98.6622 49.128C98.9382 49.14 99.1962 49.146 99.4362 49.146ZM113.014 50.226C112.654 50.514 112.162 50.76 111.538 50.964C110.926 51.156 110.272 51.252 109.576 51.252C108.124 51.252 107.062 50.832 106.39 49.992C105.718 49.14 105.382 47.976 105.382 46.5C105.382 44.916 105.76 43.728 106.516 42.936C107.272 42.144 108.334 41.748 109.702 41.748C110.158 41.748 110.602 41.808 111.034 41.928C111.466 42.048 111.85 42.246 112.186 42.522C112.522 42.798 112.792 43.17 112.996 43.638C113.2 44.106 113.302 44.688 113.302 45.384C113.302 45.636 113.284 45.906 113.248 46.194C113.224 46.482 113.182 46.782 113.122 47.094H107.722C107.758 47.85 107.95 48.42 108.298 48.804C108.658 49.188 109.234 49.38 110.026 49.38C110.518 49.38 110.956 49.308 111.34 49.164C111.736 49.008 112.036 48.852 112.24 48.696L113.014 50.226ZM109.666 43.62C109.054 43.62 108.598 43.806 108.298 44.178C108.01 44.538 107.836 45.024 107.776 45.636H111.124C111.172 44.988 111.07 44.49 110.818 44.142C110.578 43.794 110.194 43.62 109.666 43.62ZM115.89 47.274V45.636H116.988C117.408 45.636 117.75 45.552 118.014 45.384C118.29 45.216 118.428 44.994 118.428 44.718C118.428 44.394 118.308 44.166 118.068 44.034C117.828 43.89 117.462 43.818 116.97 43.818C116.502 43.818 116.088 43.878 115.728 43.998C115.368 44.118 115.08 44.244 114.864 44.376L114.36 42.594C114.72 42.39 115.194 42.216 115.782 42.072C116.382 41.916 117.018 41.838 117.69 41.838C118.722 41.838 119.49 42.03 119.994 42.414C120.51 42.798 120.768 43.356 120.768 44.088C120.768 44.292 120.738 44.502 120.678 44.718C120.63 44.922 120.546 45.12 120.426 45.312C120.306 45.504 120.156 45.678 119.976 45.834C119.808 45.978 119.604 46.092 119.364 46.176V46.248C120 46.392 120.45 46.65 120.714 47.022C120.978 47.382 121.11 47.868 121.11 48.48C121.11 48.864 121.032 49.224 120.876 49.56C120.72 49.884 120.48 50.166 120.156 50.406C119.844 50.646 119.448 50.838 118.968 50.982C118.488 51.126 117.918 51.198 117.258 51.198C116.598 51.198 116.022 51.132 115.53 51C115.05 50.856 114.648 50.694 114.324 50.514L114.828 48.696C115.104 48.852 115.434 48.978 115.818 49.074C116.214 49.17 116.652 49.218 117.132 49.218C118.224 49.218 118.77 48.87 118.77 48.174C118.77 47.862 118.626 47.634 118.338 47.49C118.062 47.346 117.54 47.274 116.772 47.274H115.89ZM122.292 46.5C122.292 44.976 122.664 43.806 123.408 42.99C124.152 42.162 125.196 41.748 126.54 41.748C127.26 41.748 127.884 41.862 128.412 42.09C128.94 42.318 129.378 42.642 129.726 43.062C130.074 43.47 130.332 43.968 130.5 44.556C130.68 45.144 130.77 45.792 130.77 46.5C130.77 48.024 130.398 49.2 129.654 50.028C128.922 50.844 127.884 51.252 126.54 51.252C125.82 51.252 125.196 51.138 124.668 50.91C124.14 50.682 123.696 50.364 123.336 49.956C122.988 49.536 122.724 49.032 122.544 48.444C122.376 47.856 122.292 47.208 122.292 46.5ZM124.704 46.5C124.704 46.896 124.74 47.262 124.812 47.598C124.884 47.934 124.992 48.228 125.136 48.48C125.28 48.732 125.466 48.93 125.694 49.074C125.934 49.206 126.216 49.272 126.54 49.272C127.152 49.272 127.608 49.05 127.908 48.606C128.208 48.162 128.358 47.46 128.358 46.5C128.358 45.672 128.22 45.006 127.944 44.502C127.668 43.986 127.2 43.728 126.54 43.728C125.964 43.728 125.514 43.944 125.19 44.376C124.866 44.808 124.704 45.516 124.704 46.5ZM137.576 44.07H134.732V51H132.392V42H139.916V51H137.576V44.07ZM141.918 42.522C142.398 42.306 142.968 42.138 143.628 42.018C144.288 41.886 144.978 41.82 145.698 41.82C146.322 41.82 146.844 41.898 147.264 42.054C147.684 42.198 148.014 42.408 148.254 42.684C148.506 42.96 148.68 43.29 148.776 43.674C148.884 44.058 148.938 44.49 148.938 44.97C148.938 45.498 148.92 46.032 148.884 46.572C148.848 47.1 148.824 47.622 148.812 48.138C148.812 48.654 148.83 49.158 148.866 49.65C148.902 50.13 148.992 50.586 149.136 51.018H147.228L146.85 49.776H146.76C146.52 50.148 146.184 50.472 145.752 50.748C145.332 51.012 144.786 51.144 144.114 51.144C143.694 51.144 143.316 51.084 142.98 50.964C142.644 50.832 142.356 50.652 142.116 50.424C141.876 50.184 141.69 49.908 141.558 49.596C141.426 49.272 141.36 48.912 141.36 48.516C141.36 47.964 141.48 47.502 141.72 47.13C141.972 46.746 142.326 46.44 142.782 46.212C143.25 45.972 143.802 45.81 144.438 45.726C145.086 45.63 145.806 45.6 146.598 45.636C146.682 44.964 146.634 44.484 146.454 44.196C146.274 43.896 145.872 43.746 145.248 43.746C144.78 43.746 144.282 43.794 143.754 43.89C143.238 43.986 142.812 44.112 142.476 44.268L141.918 42.522ZM144.888 49.218C145.356 49.218 145.728 49.116 146.004 48.912C146.28 48.696 146.484 48.468 146.616 48.228V47.058C146.244 47.022 145.884 47.016 145.536 47.04C145.2 47.064 144.9 47.118 144.636 47.202C144.372 47.286 144.162 47.406 144.006 47.562C143.85 47.718 143.772 47.916 143.772 48.156C143.772 48.492 143.868 48.756 144.06 48.948C144.264 49.128 144.54 49.218 144.888 49.218ZM157.274 50.442C156.914 50.706 156.476 50.904 155.96 51.036C155.456 51.18 154.934 51.252 154.394 51.252C153.674 51.252 153.062 51.138 152.558 50.91C152.066 50.682 151.664 50.364 151.352 49.956C151.04 49.536 150.812 49.032 150.668 48.444C150.536 47.856 150.47 47.208 150.47 46.5C150.47 44.976 150.812 43.806 151.496 42.99C152.18 42.162 153.176 41.748 154.484 41.748C155.144 41.748 155.672 41.802 156.068 41.91C156.476 42.018 156.842 42.156 157.166 42.324L156.608 44.232C156.332 44.1 156.056 43.998 155.78 43.926C155.516 43.854 155.21 43.818 154.862 43.818C154.214 43.818 153.722 44.034 153.386 44.466C153.05 44.886 152.882 45.564 152.882 46.5C152.882 46.884 152.924 47.238 153.008 47.562C153.092 47.886 153.218 48.168 153.386 48.408C153.554 48.648 153.77 48.84 154.034 48.984C154.31 49.116 154.628 49.182 154.988 49.182C155.384 49.182 155.72 49.134 155.996 49.038C156.272 48.93 156.518 48.804 156.734 48.66L157.274 50.442ZM163.963 47.454H161.029V51H158.689V42H161.029V45.384H163.963V42H166.303V51H163.963V47.454ZM167.925 46.5C167.925 44.976 168.297 43.806 169.041 42.99C169.785 42.162 170.829 41.748 172.173 41.748C172.893 41.748 173.517 41.862 174.045 42.09C174.573 42.318 175.011 42.642 175.359 43.062C175.707 43.47 175.965 43.968 176.133 44.556C176.313 45.144 176.403 45.792 176.403 46.5C176.403 48.024 176.031 49.2 175.287 50.028C174.555 50.844 173.517 51.252 172.173 51.252C171.453 51.252 170.829 51.138 170.301 50.91C169.773 50.682 169.329 50.364 168.969 49.956C168.621 49.536 168.357 49.032 168.177 48.444C168.009 47.856 167.925 47.208 167.925 46.5ZM170.337 46.5C170.337 46.896 170.373 47.262 170.445 47.598C170.517 47.934 170.625 48.228 170.769 48.48C170.913 48.732 171.099 48.93 171.327 49.074C171.567 49.206 171.849 49.272 172.173 49.272C172.785 49.272 173.241 49.05 173.541 48.606C173.841 48.162 173.991 47.46 173.991 46.5C173.991 45.672 173.853 45.006 173.577 44.502C173.301 43.986 172.833 43.728 172.173 43.728C171.597 43.728 171.147 43.944 170.823 44.376C170.499 44.808 170.337 45.516 170.337 46.5ZM184.397 50.442C184.037 50.706 183.599 50.904 183.083 51.036C182.579 51.18 182.057 51.252 181.517 51.252C180.797 51.252 180.185 51.138 179.681 50.91C179.189 50.682 178.787 50.364 178.475 49.956C178.163 49.536 177.935 49.032 177.791 48.444C177.659 47.856 177.593 47.208 177.593 46.5C177.593 44.976 177.935 43.806 178.619 42.99C179.303 42.162 180.299 41.748 181.607 41.748C182.267 41.748 182.795 41.802 183.191 41.91C183.599 42.018 183.965 42.156 184.289 42.324L183.731 44.232C183.455 44.1 183.179 43.998 182.903 43.926C182.639 43.854 182.333 43.818 181.985 43.818C181.337 43.818 180.845 44.034 180.509 44.466C180.173 44.886 180.005 45.564 180.005 46.5C180.005 46.884 180.047 47.238 180.131 47.562C180.215 47.886 180.341 48.168 180.509 48.408C180.677 48.648 180.893 48.84 181.157 48.984C181.433 49.116 181.751 49.182 182.111 49.182C182.507 49.182 182.843 49.134 183.119 49.038C183.395 48.93 183.641 48.804 183.857 48.66L184.397 50.442ZM192.204 44.07H189.666V51H187.254V44.07H184.716V42H192.204V44.07ZM195.587 49.038C195.947 49.11 196.289 49.146 196.613 49.146C197.189 49.146 197.603 49.05 197.855 48.858C198.119 48.654 198.251 48.342 198.251 47.922C198.251 47.142 197.723 46.752 196.667 46.752C196.271 46.752 195.911 46.794 195.587 46.878V49.038ZM195.587 45.204C195.875 45.156 196.163 45.126 196.451 45.114C196.751 45.09 197.021 45.078 197.261 45.078C197.885 45.078 198.413 45.15 198.845 45.294C199.277 45.426 199.625 45.618 199.889 45.87C200.165 46.122 200.363 46.422 200.483 46.77C200.603 47.106 200.663 47.472 200.663 47.868C200.663 48.96 200.339 49.776 199.691 50.316C199.043 50.856 197.945 51.126 196.397 51.126C195.713 51.126 195.119 51.114 194.615 51.09C194.123 51.066 193.667 51.036 193.247 51V42H195.587V45.204Z" fill="#1253A2"/>
<path d="M104.137 81.935H103.282L103.057 80H95.6922L95.4672 81.935H94.5972V78.89H95.6622C95.7422 78.78 95.8622 78.525 96.0222 78.125C96.1922 77.715 96.3572 77.135 96.5172 76.385C96.6872 75.625 96.8372 74.68 96.9672 73.55C97.0972 72.41 97.1622 71.06 97.1622 69.5H102.772V78.89H104.137V81.935ZM101.527 78.89V70.61H98.3322C98.3022 71.71 98.2422 72.7 98.1522 73.58C98.0722 74.46 97.9722 75.24 97.8522 75.92C97.7322 76.59 97.5972 77.17 97.4472 77.66C97.2972 78.15 97.1422 78.56 96.9822 78.89H101.527ZM105.591 73.055C105.971 72.825 106.411 72.655 106.911 72.545C107.421 72.435 107.951 72.38 108.501 72.38C109.021 72.38 109.436 72.45 109.746 72.59C110.066 72.73 110.306 72.915 110.466 73.145C110.636 73.365 110.746 73.61 110.796 73.88C110.856 74.15 110.886 74.42 110.886 74.69C110.886 75.29 110.871 75.875 110.841 76.445C110.811 77.015 110.796 77.555 110.796 78.065C110.796 78.435 110.811 78.785 110.841 79.115C110.871 79.445 110.926 79.75 111.006 80.03H110.121L109.806 78.98H109.731C109.641 79.12 109.526 79.26 109.386 79.4C109.256 79.53 109.096 79.65 108.906 79.76C108.716 79.86 108.496 79.945 108.246 80.015C107.996 80.085 107.711 80.12 107.391 80.12C107.071 80.12 106.771 80.07 106.491 79.97C106.221 79.87 105.986 79.73 105.786 79.55C105.586 79.36 105.426 79.135 105.306 78.875C105.196 78.615 105.141 78.32 105.141 77.99C105.141 77.55 105.231 77.185 105.411 76.895C105.591 76.595 105.841 76.36 106.161 76.19C106.491 76.01 106.881 75.885 107.331 75.815C107.791 75.735 108.296 75.695 108.846 75.695C108.986 75.695 109.121 75.695 109.251 75.695C109.391 75.695 109.531 75.705 109.671 75.725C109.701 75.425 109.716 75.155 109.716 74.915C109.716 74.365 109.606 73.98 109.386 73.76C109.166 73.54 108.766 73.43 108.186 73.43C108.016 73.43 107.831 73.445 107.631 73.475C107.441 73.495 107.241 73.53 107.031 73.58C106.831 73.62 106.636 73.675 106.446 73.745C106.266 73.805 106.106 73.875 105.966 73.955L105.591 73.055ZM107.721 79.07C108.001 79.07 108.251 79.035 108.471 78.965C108.691 78.885 108.881 78.79 109.041 78.68C109.201 78.56 109.331 78.43 109.431 78.29C109.541 78.15 109.621 78.015 109.671 77.885V76.64C109.531 76.63 109.386 76.625 109.236 76.625C109.096 76.615 108.956 76.61 108.816 76.61C108.506 76.61 108.201 76.63 107.901 76.67C107.611 76.7 107.351 76.765 107.121 76.865C106.901 76.955 106.721 77.085 106.581 77.255C106.451 77.415 106.386 77.62 106.386 77.87C106.386 78.22 106.511 78.51 106.761 78.74C107.011 78.96 107.331 79.07 107.721 79.07ZM117.743 76.685H114.353V80H113.153V72.5H114.353V75.635H117.743V72.5H118.943V80H117.743V76.685ZM125.843 76.685H122.453V80H121.253V72.5H122.453V75.635H125.843V72.5H127.043V80H125.843V76.685ZM130.554 78.95C130.924 79.01 131.279 79.04 131.619 79.04C132.249 79.04 132.689 78.92 132.939 78.68C133.189 78.43 133.314 78.08 133.314 77.63C133.314 77.23 133.189 76.9 132.939 76.64C132.699 76.38 132.274 76.25 131.664 76.25C131.494 76.25 131.309 76.255 131.109 76.265C130.909 76.275 130.724 76.305 130.554 76.355V78.95ZM130.554 75.365C130.794 75.325 131.024 75.3 131.244 75.29C131.464 75.27 131.674 75.26 131.874 75.26C132.384 75.26 132.809 75.32 133.149 75.44C133.499 75.55 133.779 75.705 133.989 75.905C134.199 76.105 134.344 76.345 134.424 76.625C134.514 76.895 134.559 77.185 134.559 77.495C134.559 78.405 134.304 79.065 133.794 79.475C133.294 79.885 132.479 80.09 131.349 80.09C130.709 80.09 130.044 80.06 129.354 80V72.5H130.554V75.365ZM135.744 72.5H136.944V80H135.744V72.5ZM144.731 79.4C144.431 79.64 144.051 79.83 143.591 79.97C143.141 80.11 142.661 80.18 142.151 80.18C141.581 80.18 141.086 80.09 140.666 79.91C140.246 79.72 139.901 79.455 139.631 79.115C139.361 78.765 139.161 78.35 139.031 77.87C138.901 77.39 138.836 76.85 138.836 76.25C138.836 74.97 139.121 73.995 139.691 73.325C140.261 72.655 141.076 72.32 142.136 72.32C142.476 72.32 142.816 72.36 143.156 72.44C143.496 72.51 143.801 72.65 144.071 72.86C144.341 73.07 144.561 73.37 144.731 73.76C144.901 74.14 144.986 74.645 144.986 75.275C144.986 75.605 144.956 75.97 144.896 76.37H140.081C140.081 76.81 140.126 77.2 140.216 77.54C140.306 77.88 140.446 78.17 140.636 78.41C140.826 78.64 141.071 78.82 141.371 78.95C141.681 79.07 142.056 79.13 142.496 79.13C142.836 79.13 143.176 79.07 143.516 78.95C143.856 78.83 144.111 78.69 144.281 78.53L144.731 79.4ZM142.151 73.37C141.561 73.37 141.086 73.525 140.726 73.835C140.376 74.145 140.166 74.675 140.096 75.425H143.816C143.816 74.665 143.671 74.135 143.381 73.835C143.091 73.525 142.681 73.37 142.151 73.37ZM155.388 73.55H152.073V80H150.873V72.5H156.588V80H155.388V73.55ZM164.375 79.4C164.075 79.64 163.695 79.83 163.235 79.97C162.785 80.11 162.305 80.18 161.795 80.18C161.225 80.18 160.73 80.09 160.31 79.91C159.89 79.72 159.545 79.455 159.275 79.115C159.005 78.765 158.805 78.35 158.675 77.87C158.545 77.39 158.48 76.85 158.48 76.25C158.48 74.97 158.765 73.995 159.335 73.325C159.905 72.655 160.72 72.32 161.78 72.32C162.12 72.32 162.46 72.36 162.8 72.44C163.14 72.51 163.445 72.65 163.715 72.86C163.985 73.07 164.205 73.37 164.375 73.76C164.545 74.14 164.63 74.645 164.63 75.275C164.63 75.605 164.6 75.97 164.54 76.37H159.725C159.725 76.81 159.77 77.2 159.86 77.54C159.95 77.88 160.09 78.17 160.28 78.41C160.47 78.64 160.715 78.82 161.015 78.95C161.325 79.07 161.7 79.13 162.14 79.13C162.48 79.13 162.82 79.07 163.16 78.95C163.5 78.83 163.755 78.69 163.925 78.53L164.375 79.4ZM161.795 73.37C161.205 73.37 160.73 73.525 160.37 73.835C160.02 74.145 159.81 74.675 159.74 75.425H163.46C163.46 74.665 163.315 74.135 163.025 73.835C162.735 73.525 162.325 73.37 161.795 73.37ZM166.517 72.5H167.342L167.567 73.4H167.627C167.857 73.05 168.152 72.785 168.512 72.605C168.882 72.415 169.302 72.32 169.772 72.32C170.772 72.32 171.517 72.615 172.007 73.205C172.497 73.795 172.742 74.76 172.742 76.1C172.742 76.73 172.657 77.3 172.487 77.81C172.327 78.31 172.097 78.735 171.797 79.085C171.497 79.435 171.132 79.705 170.702 79.895C170.282 80.085 169.812 80.18 169.292 80.18C168.922 80.18 168.627 80.155 168.407 80.105C168.197 80.065 167.967 79.99 167.717 79.88V83H166.517V72.5ZM169.547 73.37C169.037 73.37 168.632 73.505 168.332 73.775C168.042 74.035 167.837 74.435 167.717 74.975V78.695C167.897 78.835 168.102 78.945 168.332 79.025C168.562 79.095 168.867 79.13 169.247 79.13C169.937 79.13 170.482 78.875 170.882 78.365C171.292 77.845 171.497 77.085 171.497 76.085C171.497 75.675 171.462 75.305 171.392 74.975C171.322 74.635 171.207 74.35 171.047 74.12C170.897 73.88 170.697 73.695 170.447 73.565C170.207 73.435 169.907 73.37 169.547 73.37ZM180.107 79.4C179.807 79.64 179.427 79.83 178.967 79.97C178.517 80.11 178.037 80.18 177.527 80.18C176.957 80.18 176.462 80.09 176.042 79.91C175.622 79.72 175.277 79.455 175.007 79.115C174.737 78.765 174.537 78.35 174.407 77.87C174.277 77.39 174.212 76.85 174.212 76.25C174.212 74.97 174.497 73.995 175.067 73.325C175.637 72.655 176.452 72.32 177.512 72.32C177.852 72.32 178.192 72.36 178.532 72.44C178.872 72.51 179.177 72.65 179.447 72.86C179.717 73.07 179.937 73.37 180.107 73.76C180.277 74.14 180.362 74.645 180.362 75.275C180.362 75.605 180.332 75.97 180.272 76.37H175.457C175.457 76.81 175.502 77.2 175.592 77.54C175.682 77.88 175.822 78.17 176.012 78.41C176.202 78.64 176.447 78.82 176.747 78.95C177.057 79.07 177.432 79.13 177.872 79.13C178.212 79.13 178.552 79.07 178.892 78.95C179.232 78.83 179.487 78.69 179.657 78.53L180.107 79.4ZM177.527 73.37C176.937 73.37 176.462 73.525 176.102 73.835C175.752 74.145 175.542 74.675 175.472 75.425H179.192C179.192 74.665 179.047 74.135 178.757 73.835C178.467 73.525 178.057 73.37 177.527 73.37ZM188.543 81.905H187.733L187.508 80H181.868L181.643 81.905H180.833V78.95H181.718C181.798 78.84 181.903 78.645 182.033 78.365C182.163 78.075 182.288 77.675 182.408 77.165C182.538 76.645 182.648 76.005 182.738 75.245C182.838 74.475 182.898 73.56 182.918 72.5H187.448V78.95H188.543V81.905ZM186.248 78.95V73.55H183.998C183.978 73.97 183.943 74.43 183.893 74.93C183.843 75.42 183.773 75.915 183.683 76.415C183.603 76.905 183.498 77.37 183.368 77.81C183.238 78.25 183.088 78.63 182.918 78.95H186.248ZM189.908 73.055C190.288 72.825 190.728 72.655 191.228 72.545C191.738 72.435 192.268 72.38 192.818 72.38C193.338 72.38 193.753 72.45 194.063 72.59C194.383 72.73 194.623 72.915 194.783 73.145C194.953 73.365 195.063 73.61 195.113 73.88C195.173 74.15 195.203 74.42 195.203 74.69C195.203 75.29 195.188 75.875 195.158 76.445C195.128 77.015 195.113 77.555 195.113 78.065C195.113 78.435 195.128 78.785 195.158 79.115C195.188 79.445 195.243 79.75 195.323 80.03H194.438L194.123 78.98H194.048C193.958 79.12 193.843 79.26 193.703 79.4C193.573 79.53 193.413 79.65 193.223 79.76C193.033 79.86 192.813 79.945 192.563 80.015C192.313 80.085 192.028 80.12 191.708 80.12C191.388 80.12 191.088 80.07 190.808 79.97C190.538 79.87 190.303 79.73 190.103 79.55C189.903 79.36 189.743 79.135 189.623 78.875C189.513 78.615 189.458 78.32 189.458 77.99C189.458 77.55 189.548 77.185 189.728 76.895C189.908 76.595 190.158 76.36 190.478 76.19C190.808 76.01 191.198 75.885 191.648 75.815C192.108 75.735 192.613 75.695 193.163 75.695C193.303 75.695 193.438 75.695 193.568 75.695C193.708 75.695 193.848 75.705 193.988 75.725C194.018 75.425 194.033 75.155 194.033 74.915C194.033 74.365 193.923 73.98 193.703 73.76C193.483 73.54 193.083 73.43 192.503 73.43C192.333 73.43 192.148 73.445 191.948 73.475C191.758 73.495 191.558 73.53 191.348 73.58C191.148 73.62 190.953 73.675 190.763 73.745C190.583 73.805 190.423 73.875 190.283 73.955L189.908 73.055ZM192.038 79.07C192.318 79.07 192.568 79.035 192.788 78.965C193.008 78.885 193.198 78.79 193.358 78.68C193.518 78.56 193.648 78.43 193.748 78.29C193.858 78.15 193.938 78.015 193.988 77.885V76.64C193.848 76.63 193.703 76.625 193.553 76.625C193.413 76.615 193.273 76.61 193.133 76.61C192.823 76.61 192.518 76.63 192.218 76.67C191.928 76.7 191.668 76.765 191.438 76.865C191.218 76.955 191.038 77.085 190.898 77.255C190.768 77.415 190.703 77.62 190.703 77.87C190.703 78.22 190.828 78.51 191.078 78.74C191.328 78.96 191.648 79.07 192.038 79.07ZM203.289 80.18C202.749 80.18 202.284 80.1 201.894 79.94C201.514 79.77 201.199 79.535 200.949 79.235C200.709 78.925 200.524 78.555 200.394 78.125C200.274 77.685 200.199 77.205 200.169 76.685H198.669V80H197.469V72.5H198.669V75.635H200.184C200.264 74.565 200.554 73.745 201.054 73.175C201.564 72.605 202.319 72.32 203.319 72.32C203.869 72.32 204.334 72.415 204.714 72.605C205.104 72.785 205.419 73.05 205.659 73.4C205.909 73.74 206.089 74.155 206.199 74.645C206.309 75.125 206.364 75.66 206.364 76.25C206.364 77.52 206.109 78.495 205.599 79.175C205.099 79.845 204.329 80.18 203.289 80.18ZM201.354 76.25C201.354 76.64 201.384 77.01 201.444 77.36C201.504 77.71 201.609 78.02 201.759 78.29C201.909 78.55 202.109 78.755 202.359 78.905C202.619 79.055 202.939 79.13 203.319 79.13C203.959 79.13 204.419 78.9 204.699 78.44C204.979 77.97 205.119 77.24 205.119 76.25C205.119 75.86 205.089 75.49 205.029 75.14C204.979 74.79 204.884 74.485 204.744 74.225C204.604 73.955 204.419 73.745 204.189 73.595C203.959 73.445 203.664 73.37 203.304 73.37C202.614 73.37 202.114 73.605 201.804 74.075C201.504 74.535 201.354 75.26 201.354 76.25ZM212.801 73.55H210.446V80H209.246V73.55H206.891V72.5H212.801V73.55ZM218.873 79.505C218.573 79.725 218.218 79.89 217.808 80C217.398 80.12 216.968 80.18 216.518 80.18C215.938 80.18 215.448 80.09 215.048 79.91C214.648 79.72 214.318 79.455 214.058 79.115C213.808 78.765 213.623 78.35 213.503 77.87C213.393 77.38 213.338 76.84 213.338 76.25C213.338 74.98 213.618 74.01 214.178 73.34C214.738 72.66 215.543 72.32 216.593 72.32C217.073 72.32 217.478 72.36 217.808 72.44C218.148 72.51 218.453 72.615 218.723 72.755L218.378 73.79C218.148 73.66 217.893 73.56 217.613 73.49C217.333 73.41 217.033 73.37 216.713 73.37C215.293 73.37 214.583 74.33 214.583 76.25C214.583 76.63 214.618 76.995 214.688 77.345C214.768 77.685 214.893 77.99 215.063 78.26C215.243 78.52 215.473 78.73 215.753 78.89C216.043 79.05 216.398 79.13 216.818 79.13C217.178 79.13 217.498 79.075 217.778 78.965C218.068 78.855 218.303 78.73 218.483 78.59L218.873 79.505ZM224.261 76.895L223.106 77.075L221.126 80H219.671L221.471 77.435L222.071 76.88C221.551 76.8 221.106 76.59 220.736 76.25C220.376 75.91 220.196 75.45 220.196 74.87C220.196 74.42 220.271 74.035 220.421 73.715C220.581 73.395 220.806 73.13 221.096 72.92C221.386 72.71 221.731 72.56 222.131 72.47C222.531 72.37 222.981 72.32 223.481 72.32C223.851 72.32 224.196 72.345 224.516 72.395C224.836 72.445 225.151 72.5 225.461 72.56V80H224.261V76.895ZM224.261 73.52C224.131 73.47 223.986 73.435 223.826 73.415C223.666 73.385 223.526 73.37 223.406 73.37C222.766 73.37 222.276 73.485 221.936 73.715C221.606 73.945 221.441 74.31 221.441 74.81C221.441 75.26 221.616 75.61 221.966 75.86C222.326 76.1 222.796 76.22 223.376 76.22C223.386 76.22 223.401 76.22 223.421 76.22C223.441 76.22 223.481 76.22 223.541 76.22C223.601 76.22 223.686 76.22 223.796 76.22C223.906 76.21 224.061 76.2 224.261 76.19V73.52ZM231.644 72.515C231.994 72.495 232.359 72.47 232.739 72.44C233.129 72.41 233.609 72.395 234.179 72.395C235.169 72.395 235.879 72.55 236.309 72.86C236.739 73.16 236.954 73.62 236.954 74.24C236.954 74.59 236.849 74.935 236.639 75.275C236.439 75.605 236.104 75.85 235.634 76.01V76.07C236.224 76.18 236.639 76.385 236.879 76.685C237.119 76.985 237.239 77.385 237.239 77.885C237.239 78.665 236.959 79.23 236.399 79.58C235.839 79.93 234.999 80.105 233.879 80.105C233.459 80.105 233.069 80.09 232.709 80.06C232.349 80.04 231.994 80.015 231.644 79.985V72.515ZM232.844 78.995C233.034 79.015 233.219 79.03 233.399 79.04C233.589 79.05 233.809 79.055 234.059 79.055C234.729 79.055 235.224 78.96 235.544 78.77C235.874 78.58 236.039 78.255 236.039 77.795C236.039 77.435 235.899 77.145 235.619 76.925C235.349 76.695 234.864 76.58 234.164 76.58H232.844V78.995ZM234.314 75.665C234.494 75.665 234.669 75.635 234.839 75.575C235.009 75.515 235.159 75.435 235.289 75.335C235.429 75.225 235.539 75.1 235.619 74.96C235.709 74.82 235.754 74.67 235.754 74.51C235.754 74.11 235.634 73.835 235.394 73.685C235.154 73.525 234.734 73.445 234.134 73.445C233.814 73.445 233.559 73.45 233.369 73.46C233.189 73.47 233.014 73.48 232.844 73.49V75.665H234.314ZM96.3972 94.655V93.68H97.4472C97.6272 93.68 97.8022 93.65 97.9722 93.59C98.1522 93.53 98.3122 93.45 98.4522 93.35C98.5922 93.24 98.7022 93.115 98.7822 92.975C98.8722 92.825 98.9172 92.67 98.9172 92.51C98.9172 92.12 98.7822 91.845 98.5122 91.685C98.2422 91.525 97.8372 91.445 97.2972 91.445C96.9072 91.445 96.5472 91.505 96.2172 91.625C95.8972 91.745 95.6472 91.86 95.4672 91.97L95.1222 91.04C95.4222 90.87 95.7722 90.72 96.1722 90.59C96.5822 90.46 97.0672 90.395 97.6272 90.395C99.2872 90.395 100.117 91.01 100.117 92.24C100.117 92.59 100.002 92.935 99.7722 93.275C99.5522 93.605 99.2322 93.84 98.8122 93.98V94.04C99.4022 94.15 99.8122 94.36 100.042 94.67C100.282 94.98 100.402 95.39 100.402 95.9C100.402 96.22 100.337 96.515 100.207 96.785C100.077 97.055 99.8822 97.29 99.6222 97.49C99.3622 97.69 99.0322 97.85 98.6322 97.97C98.2422 98.08 97.7872 98.135 97.2672 98.135C96.7572 98.135 96.3322 98.09 95.9922 98C95.6622 97.91 95.3622 97.8 95.0922 97.67L95.4372 96.68C95.6672 96.81 95.9422 96.91 96.2622 96.98C96.5922 97.05 96.9472 97.085 97.3272 97.085C97.9372 97.085 98.4022 96.98 98.7222 96.77C99.0422 96.56 99.2022 96.24 99.2022 95.81C99.2022 95.45 99.0522 95.17 98.7522 94.97C98.4522 94.76 97.9572 94.655 97.2672 94.655H96.3972ZM102.178 91.055C102.558 90.825 102.998 90.655 103.498 90.545C104.008 90.435 104.538 90.38 105.088 90.38C105.608 90.38 106.023 90.45 106.333 90.59C106.653 90.73 106.893 90.915 107.053 91.145C107.223 91.365 107.333 91.61 107.383 91.88C107.443 92.15 107.473 92.42 107.473 92.69C107.473 93.29 107.458 93.875 107.428 94.445C107.398 95.015 107.383 95.555 107.383 96.065C107.383 96.435 107.398 96.785 107.428 97.115C107.458 97.445 107.513 97.75 107.593 98.03H106.708L106.393 96.98H106.318C106.228 97.12 106.113 97.26 105.973 97.4C105.843 97.53 105.683 97.65 105.493 97.76C105.303 97.86 105.083 97.945 104.833 98.015C104.583 98.085 104.298 98.12 103.978 98.12C103.658 98.12 103.358 98.07 103.078 97.97C102.808 97.87 102.573 97.73 102.373 97.55C102.173 97.36 102.013 97.135 101.893 96.875C101.783 96.615 101.728 96.32 101.728 95.99C101.728 95.55 101.818 95.185 101.998 94.895C102.178 94.595 102.428 94.36 102.748 94.19C103.078 94.01 103.468 93.885 103.918 93.815C104.378 93.735 104.883 93.695 105.433 93.695C105.573 93.695 105.708 93.695 105.838 93.695C105.978 93.695 106.118 93.705 106.258 93.725C106.288 93.425 106.303 93.155 106.303 92.915C106.303 92.365 106.193 91.98 105.973 91.76C105.753 91.54 105.353 91.43 104.773 91.43C104.603 91.43 104.418 91.445 104.218 91.475C104.028 91.495 103.828 91.53 103.618 91.58C103.418 91.62 103.223 91.675 103.033 91.745C102.853 91.805 102.693 91.875 102.553 91.955L102.178 91.055ZM104.308 97.07C104.588 97.07 104.838 97.035 105.058 96.965C105.278 96.885 105.468 96.79 105.628 96.68C105.788 96.56 105.918 96.43 106.018 96.29C106.128 96.15 106.208 96.015 106.258 95.885V94.64C106.118 94.63 105.973 94.625 105.823 94.625C105.683 94.615 105.543 94.61 105.403 94.61C105.093 94.61 104.788 94.63 104.488 94.67C104.198 94.7 103.938 94.765 103.708 94.865C103.488 94.955 103.308 95.085 103.168 95.255C103.038 95.415 102.973 95.62 102.973 95.87C102.973 96.22 103.098 96.51 103.348 96.74C103.598 96.96 103.918 97.07 104.308 97.07ZM109.74 98V90.5H110.94V96.95H113.505V90.5H114.705V96.95H117.27V90.5H118.47V98H109.74ZM125.465 93.56L125.51 92.63H125.465L124.85 93.59L121.475 98H120.785V90.5H121.985V95.075L121.94 95.96H122L122.585 95.03L125.96 90.5H126.665V98H125.465V93.56ZM132.348 98.06C132.178 98.12 131.998 98.155 131.808 98.165C131.628 98.175 131.463 98.18 131.313 98.18C130.403 98.18 129.703 97.86 129.213 97.22C128.723 96.58 128.478 95.59 128.478 94.25C128.478 92.97 128.748 92.005 129.288 91.355C129.828 90.705 130.608 90.38 131.628 90.38C131.908 90.38 132.148 90.4 132.348 90.44V87.5H133.488V90.455C133.668 90.425 133.828 90.405 133.968 90.395C134.108 90.385 134.243 90.38 134.373 90.38C135.363 90.38 136.108 90.67 136.608 91.25C137.108 91.82 137.358 92.77 137.358 94.1C137.358 94.73 137.288 95.3 137.148 95.81C137.018 96.31 136.823 96.735 136.563 97.085C136.303 97.435 135.983 97.705 135.603 97.895C135.233 98.085 134.803 98.18 134.313 98.18C134.223 98.18 134.088 98.17 133.908 98.15C133.738 98.14 133.598 98.115 133.488 98.075V101H132.348V98.06ZM134.148 91.37C134.028 91.37 133.918 91.375 133.818 91.385C133.728 91.385 133.613 91.405 133.473 91.445V97.145C133.573 97.165 133.683 97.18 133.803 97.19C133.933 97.19 134.073 97.19 134.223 97.19C134.863 97.19 135.343 96.925 135.663 96.395C135.993 95.865 136.158 95.1 136.158 94.1C136.158 93.25 136.008 92.585 135.708 92.105C135.418 91.615 134.898 91.37 134.148 91.37ZM131.613 97.19C131.733 97.19 131.853 97.185 131.973 97.175C132.093 97.165 132.223 97.145 132.363 97.115V91.43C132.243 91.41 132.128 91.395 132.018 91.385C131.918 91.375 131.793 91.37 131.643 91.37C131.023 91.37 130.538 91.605 130.188 92.075C129.848 92.535 129.678 93.26 129.678 94.25C129.678 94.67 129.713 95.06 129.783 95.42C129.863 95.78 129.983 96.095 130.143 96.365C130.303 96.625 130.503 96.83 130.743 96.98C130.993 97.12 131.283 97.19 131.613 97.19ZM139.168 90.5H139.993L140.218 91.4H140.278C140.508 91.05 140.803 90.785 141.163 90.605C141.533 90.415 141.953 90.32 142.423 90.32C143.423 90.32 144.168 90.615 144.658 91.205C145.148 91.795 145.393 92.76 145.393 94.1C145.393 94.73 145.308 95.3 145.138 95.81C144.978 96.31 144.748 96.735 144.448 97.085C144.148 97.435 143.783 97.705 143.353 97.895C142.933 98.085 142.463 98.18 141.943 98.18C141.573 98.18 141.278 98.155 141.058 98.105C140.848 98.065 140.618 97.99 140.368 97.88V101H139.168V90.5ZM142.198 91.37C141.688 91.37 141.283 91.505 140.983 91.775C140.693 92.035 140.488 92.435 140.368 92.975V96.695C140.548 96.835 140.753 96.945 140.983 97.025C141.213 97.095 141.518 97.13 141.898 97.13C142.588 97.13 143.133 96.875 143.533 96.365C143.943 95.845 144.148 95.085 144.148 94.085C144.148 93.675 144.113 93.305 144.043 92.975C143.973 92.635 143.858 92.35 143.698 92.12C143.548 91.88 143.348 91.695 143.098 91.565C142.858 91.435 142.558 91.37 142.198 91.37ZM146.864 94.25C146.864 92.98 147.144 92.01 147.704 91.34C148.274 90.66 149.089 90.32 150.149 90.32C150.709 90.32 151.194 90.415 151.604 90.605C152.024 90.785 152.369 91.05 152.639 91.4C152.909 91.74 153.109 92.155 153.239 92.645C153.369 93.125 153.434 93.66 153.434 94.25C153.434 95.52 153.149 96.495 152.579 97.175C152.019 97.845 151.209 98.18 150.149 98.18C149.589 98.18 149.099 98.09 148.679 97.91C148.269 97.72 147.929 97.455 147.659 97.115C147.389 96.765 147.189 96.35 147.059 95.87C146.929 95.38 146.864 94.84 146.864 94.25ZM148.109 94.25C148.109 94.63 148.144 94.995 148.214 95.345C148.294 95.695 148.414 96 148.574 96.26C148.734 96.52 148.944 96.73 149.204 96.89C149.464 97.05 149.779 97.13 150.149 97.13C151.509 97.14 152.189 96.18 152.189 94.25C152.189 93.86 152.149 93.49 152.069 93.14C151.999 92.79 151.884 92.485 151.724 92.225C151.564 91.965 151.354 91.76 151.094 91.61C150.834 91.45 150.519 91.37 150.149 91.37C148.789 91.36 148.109 92.32 148.109 94.25ZM155.326 90.515C155.676 90.495 156.041 90.47 156.421 90.44C156.811 90.41 157.291 90.395 157.861 90.395C158.851 90.395 159.561 90.55 159.991 90.86C160.421 91.16 160.636 91.62 160.636 92.24C160.636 92.59 160.531 92.935 160.321 93.275C160.121 93.605 159.786 93.85 159.316 94.01V94.07C159.906 94.18 160.321 94.385 160.561 94.685C160.801 94.985 160.921 95.385 160.921 95.885C160.921 96.665 160.641 97.23 160.081 97.58C159.521 97.93 158.681 98.105 157.561 98.105C157.141 98.105 156.751 98.09 156.391 98.06C156.031 98.04 155.676 98.015 155.326 97.985V90.515ZM156.526 96.995C156.716 97.015 156.901 97.03 157.081 97.04C157.271 97.05 157.491 97.055 157.741 97.055C158.411 97.055 158.906 96.96 159.226 96.77C159.556 96.58 159.721 96.255 159.721 95.795C159.721 95.435 159.581 95.145 159.301 94.925C159.031 94.695 158.546 94.58 157.846 94.58H156.526V96.995ZM157.996 93.665C158.176 93.665 158.351 93.635 158.521 93.575C158.691 93.515 158.841 93.435 158.971 93.335C159.111 93.225 159.221 93.1 159.301 92.96C159.391 92.82 159.436 92.67 159.436 92.51C159.436 92.11 159.316 91.835 159.076 91.685C158.836 91.525 158.416 91.445 157.816 91.445C157.496 91.445 157.241 91.45 157.051 91.46C156.871 91.47 156.696 91.48 156.526 91.49V93.665H157.996ZM162.691 91.055C163.071 90.825 163.511 90.655 164.011 90.545C164.521 90.435 165.051 90.38 165.601 90.38C166.121 90.38 166.536 90.45 166.846 90.59C167.166 90.73 167.406 90.915 167.566 91.145C167.736 91.365 167.846 91.61 167.896 91.88C167.956 92.15 167.986 92.42 167.986 92.69C167.986 93.29 167.971 93.875 167.941 94.445C167.911 95.015 167.896 95.555 167.896 96.065C167.896 96.435 167.911 96.785 167.941 97.115C167.971 97.445 168.026 97.75 168.106 98.03H167.221L166.906 96.98H166.831C166.741 97.12 166.626 97.26 166.486 97.4C166.356 97.53 166.196 97.65 166.006 97.76C165.816 97.86 165.596 97.945 165.346 98.015C165.096 98.085 164.811 98.12 164.491 98.12C164.171 98.12 163.871 98.07 163.591 97.97C163.321 97.87 163.086 97.73 162.886 97.55C162.686 97.36 162.526 97.135 162.406 96.875C162.296 96.615 162.241 96.32 162.241 95.99C162.241 95.55 162.331 95.185 162.511 94.895C162.691 94.595 162.941 94.36 163.261 94.19C163.591 94.01 163.981 93.885 164.431 93.815C164.891 93.735 165.396 93.695 165.946 93.695C166.086 93.695 166.221 93.695 166.351 93.695C166.491 93.695 166.631 93.705 166.771 93.725C166.801 93.425 166.816 93.155 166.816 92.915C166.816 92.365 166.706 91.98 166.486 91.76C166.266 91.54 165.866 91.43 165.286 91.43C165.116 91.43 164.931 91.445 164.731 91.475C164.541 91.495 164.341 91.53 164.131 91.58C163.931 91.62 163.736 91.675 163.546 91.745C163.366 91.805 163.206 91.875 163.066 91.955L162.691 91.055ZM164.821 97.07C165.101 97.07 165.351 97.035 165.571 96.965C165.791 96.885 165.981 96.79 166.141 96.68C166.301 96.56 166.431 96.43 166.531 96.29C166.641 96.15 166.721 96.015 166.771 95.885V94.64C166.631 94.63 166.486 94.625 166.336 94.625C166.196 94.615 166.056 94.61 165.916 94.61C165.606 94.61 165.301 94.63 165.001 94.67C164.711 94.7 164.451 94.765 164.221 94.865C164.001 94.955 163.821 95.085 163.681 95.255C163.551 95.415 163.486 95.62 163.486 95.87C163.486 96.22 163.611 96.51 163.861 96.74C164.111 96.96 164.431 97.07 164.821 97.07ZM174.842 94.685H171.452V98H170.252V90.5H171.452V93.635H174.842V90.5H176.042V98H174.842V94.685ZM182.943 94.685H179.553V98H178.353V90.5H179.553V93.635H182.943V90.5H184.143V98H182.943V94.685ZM186.034 94.25C186.034 92.98 186.314 92.01 186.874 91.34C187.444 90.66 188.259 90.32 189.319 90.32C189.879 90.32 190.364 90.415 190.774 90.605C191.194 90.785 191.539 91.05 191.809 91.4C192.079 91.74 192.279 92.155 192.409 92.645C192.539 93.125 192.604 93.66 192.604 94.25C192.604 95.52 192.319 96.495 191.749 97.175C191.189 97.845 190.379 98.18 189.319 98.18C188.759 98.18 188.269 98.09 187.849 97.91C187.439 97.72 187.099 97.455 186.829 97.115C186.559 96.765 186.359 96.35 186.229 95.87C186.099 95.38 186.034 94.84 186.034 94.25ZM187.279 94.25C187.279 94.63 187.314 94.995 187.384 95.345C187.464 95.695 187.584 96 187.744 96.26C187.904 96.52 188.114 96.73 188.374 96.89C188.634 97.05 188.949 97.13 189.319 97.13C190.679 97.14 191.359 96.18 191.359 94.25C191.359 93.86 191.319 93.49 191.239 93.14C191.169 92.79 191.054 92.485 190.894 92.225C190.734 91.965 190.524 91.76 190.264 91.61C190.004 91.45 189.689 91.37 189.319 91.37C187.959 91.36 187.279 92.32 187.279 94.25ZM200.691 93.545L200.781 92.12H200.706L200.166 93.275L198.351 96.215H197.931L196.041 93.275L195.546 92.12H195.486L195.606 93.53V98H194.496V90.5H195.681L197.781 93.86L198.216 94.73H198.246L198.696 93.83L200.661 90.5H201.861V98H200.691V93.545ZM208.163 90.515C208.513 90.495 208.878 90.47 209.258 90.44C209.648 90.41 210.128 90.395 210.698 90.395C211.688 90.395 212.398 90.55 212.828 90.86C213.258 91.16 213.473 91.62 213.473 92.24C213.473 92.59 213.368 92.935 213.158 93.275C212.958 93.605 212.623 93.85 212.153 94.01V94.07C212.743 94.18 213.158 94.385 213.398 94.685C213.638 94.985 213.758 95.385 213.758 95.885C213.758 96.665 213.478 97.23 212.918 97.58C212.358 97.93 211.518 98.105 210.398 98.105C209.978 98.105 209.588 98.09 209.228 98.06C208.868 98.04 208.513 98.015 208.163 97.985V90.515ZM209.363 96.995C209.553 97.015 209.738 97.03 209.918 97.04C210.108 97.05 210.328 97.055 210.578 97.055C211.248 97.055 211.743 96.96 212.063 96.77C212.393 96.58 212.558 96.255 212.558 95.795C212.558 95.435 212.418 95.145 212.138 94.925C211.868 94.695 211.383 94.58 210.683 94.58H209.363V96.995ZM210.833 93.665C211.013 93.665 211.188 93.635 211.358 93.575C211.528 93.515 211.678 93.435 211.808 93.335C211.948 93.225 212.058 93.1 212.138 92.96C212.228 92.82 212.273 92.67 212.273 92.51C212.273 92.11 212.153 91.835 211.913 91.685C211.673 91.525 211.253 91.445 210.653 91.445C210.333 91.445 210.078 91.45 209.888 91.46C209.708 91.47 209.533 91.48 209.363 91.49V93.665H210.833ZM220.328 93.56L220.373 92.63H220.328L219.713 93.59L216.338 98H215.648V90.5H216.848V95.075L216.803 95.96H216.863L217.448 95.03L220.823 90.5H221.528V98H220.328V93.56ZM230.466 99.905H229.656L229.431 98H223.791L223.566 99.905H222.756V96.95H223.641C223.721 96.84 223.826 96.645 223.956 96.365C224.086 96.075 224.211 95.675 224.331 95.165C224.461 94.645 224.571 94.005 224.661 93.245C224.761 92.475 224.821 91.56 224.841 90.5H229.371V96.95H230.466V99.905ZM228.171 96.95V91.55H225.921C225.901 91.97 225.866 92.43 225.816 92.93C225.766 93.42 225.696 93.915 225.606 94.415C225.526 94.905 225.421 95.37 225.291 95.81C225.161 96.25 225.011 96.63 224.841 96.95H228.171ZM237.427 97.4C237.127 97.64 236.747 97.83 236.287 97.97C235.837 98.11 235.357 98.18 234.847 98.18C234.277 98.18 233.782 98.09 233.362 97.91C232.942 97.72 232.597 97.455 232.327 97.115C232.057 96.765 231.857 96.35 231.727 95.87C231.597 95.39 231.532 94.85 231.532 94.25C231.532 92.97 231.817 91.995 232.387 91.325C232.957 90.655 233.772 90.32 234.832 90.32C235.172 90.32 235.512 90.36 235.852 90.44C236.192 90.51 236.497 90.65 236.767 90.86C237.037 91.07 237.257 91.37 237.427 91.76C237.597 92.14 237.682 92.645 237.682 93.275C237.682 93.605 237.652 93.97 237.592 94.37H232.777C232.777 94.81 232.822 95.2 232.912 95.54C233.002 95.88 233.142 96.17 233.332 96.41C233.522 96.64 233.767 96.82 234.067 96.95C234.377 97.07 234.752 97.13 235.192 97.13C235.532 97.13 235.872 97.07 236.212 96.95C236.552 96.83 236.807 96.69 236.977 96.53L237.427 97.4ZM234.847 91.37C234.257 91.37 233.782 91.525 233.422 91.835C233.072 92.145 232.862 92.675 232.792 93.425H236.512C236.512 92.665 236.367 92.135 236.077 91.835C235.787 91.525 235.377 91.37 234.847 91.37ZM239.149 97.355C239.149 97.115 239.229 96.92 239.389 96.77C239.549 96.62 239.754 96.545 240.004 96.545C240.314 96.545 240.564 96.655 240.754 96.875C240.954 97.095 241.054 97.415 241.054 97.835C241.054 98.195 241.004 98.51 240.904 98.78C240.804 99.05 240.674 99.28 240.514 99.47C240.354 99.67 240.179 99.83 239.989 99.95C239.799 100.08 239.609 100.175 239.419 100.235L239.044 99.65C239.404 99.51 239.669 99.29 239.839 98.99C240.019 98.7 240.109 98.405 240.109 98.105C240.019 98.135 239.934 98.15 239.854 98.15C239.654 98.15 239.484 98.085 239.344 97.955C239.214 97.815 239.149 97.615 239.149 97.355ZM245.345 94.25C245.345 92.98 245.625 92.01 246.185 91.34C246.755 90.66 247.57 90.32 248.63 90.32C249.19 90.32 249.675 90.415 250.085 90.605C250.505 90.785 250.85 91.05 251.12 91.4C251.39 91.74 251.59 92.155 251.72 92.645C251.85 93.125 251.915 93.66 251.915 94.25C251.915 95.52 251.63 96.495 251.06 97.175C250.5 97.845 249.69 98.18 248.63 98.18C248.07 98.18 247.58 98.09 247.16 97.91C246.75 97.72 246.41 97.455 246.14 97.115C245.87 96.765 245.67 96.35 245.54 95.87C245.41 95.38 245.345 94.84 245.345 94.25ZM246.59 94.25C246.59 94.63 246.625 94.995 246.695 95.345C246.775 95.695 246.895 96 247.055 96.26C247.215 96.52 247.425 96.73 247.685 96.89C247.945 97.05 248.26 97.13 248.63 97.13C249.99 97.14 250.67 96.18 250.67 94.25C250.67 93.86 250.63 93.49 250.55 93.14C250.48 92.79 250.365 92.485 250.205 92.225C250.045 91.965 249.835 91.76 249.575 91.61C249.315 91.45 249 91.37 248.63 91.37C247.27 91.36 246.59 92.32 246.59 94.25ZM258.397 94.685H255.007V98H253.807V90.5H255.007V93.635H258.397V90.5H259.597V98H258.397V94.685ZM266.588 93.56L266.633 92.63H266.588L265.973 93.59L262.598 98H261.908V90.5H263.108V95.075L263.063 95.96H263.123L263.708 95.03L267.083 90.5H267.788V98H266.588V93.56ZM280.725 99.905H279.915L279.69 98H274.05L273.825 99.905H273.015V96.95H273.9C273.98 96.84 274.085 96.645 274.215 96.365C274.345 96.075 274.47 95.675 274.59 95.165C274.72 94.645 274.83 94.005 274.92 93.245C275.02 92.475 275.08 91.56 275.1 90.5H279.63V96.95H280.725V99.905ZM278.43 96.95V91.55H276.18C276.16 91.97 276.125 92.43 276.075 92.93C276.025 93.42 275.955 93.915 275.865 94.415C275.785 94.905 275.68 95.37 275.55 95.81C275.42 96.25 275.27 96.63 275.1 96.95H278.43ZM281.79 94.25C281.79 92.98 282.07 92.01 282.63 91.34C283.2 90.66 284.015 90.32 285.075 90.32C285.635 90.32 286.12 90.415 286.53 90.605C286.95 90.785 287.295 91.05 287.565 91.4C287.835 91.74 288.035 92.155 288.165 92.645C288.295 93.125 288.36 93.66 288.36 94.25C288.36 95.52 288.075 96.495 287.505 97.175C286.945 97.845 286.135 98.18 285.075 98.18C284.515 98.18 284.025 98.09 283.605 97.91C283.195 97.72 282.855 97.455 282.585 97.115C282.315 96.765 282.115 96.35 281.985 95.87C281.855 95.38 281.79 94.84 281.79 94.25ZM283.035 94.25C283.035 94.63 283.07 94.995 283.14 95.345C283.22 95.695 283.34 96 283.5 96.26C283.66 96.52 283.87 96.73 284.13 96.89C284.39 97.05 284.705 97.13 285.075 97.13C286.435 97.14 287.115 96.18 287.115 94.25C287.115 93.86 287.075 93.49 286.995 93.14C286.925 92.79 286.81 92.485 286.65 92.225C286.49 91.965 286.28 91.76 286.02 91.61C285.76 91.45 285.445 91.37 285.075 91.37C283.715 91.36 283.035 92.32 283.035 94.25ZM295.367 97.505C295.067 97.725 294.712 97.89 294.302 98C293.892 98.12 293.462 98.18 293.012 98.18C292.432 98.18 291.942 98.09 291.542 97.91C291.142 97.72 290.812 97.455 290.552 97.115C290.302 96.765 290.117 96.35 289.997 95.87C289.887 95.38 289.832 94.84 289.832 94.25C289.832 92.98 290.112 92.01 290.672 91.34C291.232 90.66 292.037 90.32 293.087 90.32C293.567 90.32 293.972 90.36 294.302 90.44C294.642 90.51 294.947 90.615 295.217 90.755L294.872 91.79C294.642 91.66 294.387 91.56 294.107 91.49C293.827 91.41 293.527 91.37 293.207 91.37C291.787 91.37 291.077 92.33 291.077 94.25C291.077 94.63 291.112 94.995 291.182 95.345C291.262 95.685 291.387 95.99 291.557 96.26C291.737 96.52 291.967 96.73 292.247 96.89C292.537 97.05 292.892 97.13 293.312 97.13C293.672 97.13 293.992 97.075 294.272 96.965C294.562 96.855 294.797 96.73 294.977 96.59L295.367 97.505ZM301.571 91.55H299.216V98H298.016V91.55H295.661V90.5H301.571V91.55ZM304.967 95.36L305.387 96.8H305.462L305.792 95.345L307.247 90.5H308.462L306.242 97.235C306.072 97.725 305.902 98.2 305.732 98.66C305.572 99.12 305.392 99.53 305.192 99.89C304.992 100.25 304.767 100.535 304.517 100.745C304.267 100.965 303.977 101.075 303.647 101.075C303.287 101.075 302.992 101.025 302.762 100.925L302.972 99.89C303.102 99.94 303.227 99.965 303.347 99.965C303.627 99.965 303.897 99.815 304.157 99.515C304.417 99.225 304.632 98.72 304.802 98L301.787 90.5H303.167L304.967 95.36ZM314.264 91.55H310.949V98H309.749V90.5H315.464V98H314.264V91.55ZM322.367 94.685H318.977V98H317.777V90.5H318.977V93.635H322.367V90.5H323.567V98H322.367V94.685ZM327.077 96.95C327.447 97.01 327.802 97.04 328.142 97.04C328.772 97.04 329.212 96.92 329.462 96.68C329.712 96.43 329.837 96.08 329.837 95.63C329.837 95.23 329.712 94.9 329.462 94.64C329.222 94.38 328.797 94.25 328.187 94.25C328.017 94.25 327.832 94.255 327.632 94.265C327.432 94.275 327.247 94.305 327.077 94.355V96.95ZM327.077 93.365C327.317 93.325 327.547 93.3 327.767 93.29C327.987 93.27 328.197 93.26 328.397 93.26C328.907 93.26 329.332 93.32 329.672 93.44C330.022 93.55 330.302 93.705 330.512 93.905C330.722 94.105 330.867 94.345 330.947 94.625C331.037 94.895 331.082 95.185 331.082 95.495C331.082 96.405 330.827 97.065 330.317 97.475C329.817 97.885 329.002 98.09 327.872 98.09C327.232 98.09 326.567 98.06 325.877 98V90.5H327.077V93.365ZM332.267 90.5H333.467V98H332.267V90.5ZM100.462 109.55H98.1072V116H96.9072V109.55H94.5522V108.5H100.462V109.55ZM100.999 112.25C100.999 110.98 101.279 110.01 101.839 109.34C102.409 108.66 103.224 108.32 104.284 108.32C104.844 108.32 105.329 108.415 105.739 108.605C106.159 108.785 106.504 109.05 106.774 109.4C107.044 109.74 107.244 110.155 107.374 110.645C107.504 111.125 107.569 111.66 107.569 112.25C107.569 113.52 107.284 114.495 106.714 115.175C106.154 115.845 105.344 116.18 104.284 116.18C103.724 116.18 103.234 116.09 102.814 115.91C102.404 115.72 102.064 115.455 101.794 115.115C101.524 114.765 101.324 114.35 101.194 113.87C101.064 113.38 100.999 112.84 100.999 112.25ZM102.244 112.25C102.244 112.63 102.279 112.995 102.349 113.345C102.429 113.695 102.549 114 102.709 114.26C102.869 114.52 103.079 114.73 103.339 114.89C103.599 115.05 103.914 115.13 104.284 115.13C105.644 115.14 106.324 114.18 106.324 112.25C106.324 111.86 106.284 111.49 106.204 111.14C106.134 110.79 106.019 110.485 105.859 110.225C105.699 109.965 105.489 109.76 105.229 109.61C104.969 109.45 104.654 109.37 104.284 109.37C102.924 109.36 102.244 110.32 102.244 112.25ZM113.409 109.55H111.234C111.204 109.97 111.174 110.425 111.144 110.915C111.114 111.395 111.069 111.88 111.009 112.37C110.949 112.85 110.869 113.315 110.769 113.765C110.669 114.205 110.539 114.595 110.379 114.935C110.229 115.275 110.039 115.55 109.809 115.76C109.589 115.96 109.324 116.06 109.014 116.06C108.824 116.06 108.659 116.05 108.519 116.03C108.379 116.01 108.254 115.975 108.144 115.925L108.324 114.92C108.444 114.96 108.574 114.98 108.714 114.98C108.914 114.98 109.094 114.895 109.254 114.725C109.414 114.555 109.554 114.235 109.674 113.765C109.794 113.285 109.894 112.625 109.974 111.785C110.054 110.945 110.109 109.85 110.139 108.5H114.609V116H113.409V109.55ZM118.117 114.95C118.487 115.01 118.842 115.04 119.182 115.04C119.812 115.04 120.277 114.92 120.577 114.68C120.877 114.43 121.027 114.08 121.027 113.63C121.027 113.23 120.882 112.9 120.592 112.64C120.302 112.38 119.847 112.25 119.227 112.25C119.057 112.25 118.872 112.255 118.672 112.265C118.472 112.275 118.287 112.305 118.117 112.355V114.95ZM118.117 111.365C118.357 111.325 118.587 111.3 118.807 111.29C119.027 111.27 119.237 111.26 119.437 111.26C119.957 111.26 120.397 111.32 120.757 111.44C121.117 111.55 121.407 111.705 121.627 111.905C121.857 112.105 122.022 112.345 122.122 112.625C122.222 112.895 122.272 113.185 122.272 113.495C122.272 114.405 121.997 115.065 121.447 115.475C120.907 115.885 120.062 116.09 118.912 116.09C118.272 116.09 117.607 116.06 116.917 116V108.5H118.117V111.365ZM125.765 112.625H125.075V116H123.875V108.5H125.075V111.89L125.72 111.68L128.12 108.5H129.425L127.1 111.515L126.47 112.01L127.25 112.61L129.755 116H128.27L125.765 112.625ZM130.457 112.25C130.457 110.98 130.737 110.01 131.297 109.34C131.867 108.66 132.682 108.32 133.742 108.32C134.302 108.32 134.787 108.415 135.197 108.605C135.617 108.785 135.962 109.05 136.232 109.4C136.502 109.74 136.702 110.155 136.832 110.645C136.962 111.125 137.027 111.66 137.027 112.25C137.027 113.52 136.742 114.495 136.172 115.175C135.612 115.845 134.802 116.18 133.742 116.18C133.182 116.18 132.692 116.09 132.272 115.91C131.862 115.72 131.522 115.455 131.252 115.115C130.982 114.765 130.782 114.35 130.652 113.87C130.522 113.38 130.457 112.84 130.457 112.25ZM131.702 112.25C131.702 112.63 131.737 112.995 131.807 113.345C131.887 113.695 132.007 114 132.167 114.26C132.327 114.52 132.537 114.73 132.797 114.89C133.057 115.05 133.372 115.13 133.742 115.13C135.102 115.14 135.782 114.18 135.782 112.25C135.782 111.86 135.742 111.49 135.662 111.14C135.592 110.79 135.477 110.485 135.317 110.225C135.157 109.965 134.947 109.76 134.687 109.61C134.427 109.45 134.112 109.37 133.742 109.37C132.382 109.36 131.702 110.32 131.702 112.25ZM147.433 109.55H144.118V116H142.918V108.5H148.633V116H147.433V109.55ZM150.526 112.25C150.526 110.98 150.806 110.01 151.366 109.34C151.936 108.66 152.751 108.32 153.811 108.32C154.371 108.32 154.856 108.415 155.266 108.605C155.686 108.785 156.031 109.05 156.301 109.4C156.571 109.74 156.771 110.155 156.901 110.645C157.031 111.125 157.096 111.66 157.096 112.25C157.096 113.52 156.811 114.495 156.241 115.175C155.681 115.845 154.871 116.18 153.811 116.18C153.251 116.18 152.761 116.09 152.341 115.91C151.931 115.72 151.591 115.455 151.321 115.115C151.051 114.765 150.851 114.35 150.721 113.87C150.591 113.38 150.526 112.84 150.526 112.25ZM151.771 112.25C151.771 112.63 151.806 112.995 151.876 113.345C151.956 113.695 152.076 114 152.236 114.26C152.396 114.52 152.606 114.73 152.866 114.89C153.126 115.05 153.441 115.13 153.811 115.13C155.171 115.14 155.851 114.18 155.851 112.25C155.851 111.86 155.811 111.49 155.731 111.14C155.661 110.79 155.546 110.485 155.386 110.225C155.226 109.965 155.016 109.76 154.756 109.61C154.496 109.45 154.181 109.37 153.811 109.37C152.451 109.36 151.771 110.32 151.771 112.25ZM162.935 109.55H160.76C160.73 109.97 160.7 110.425 160.67 110.915C160.64 111.395 160.595 111.88 160.535 112.37C160.475 112.85 160.395 113.315 160.295 113.765C160.195 114.205 160.065 114.595 159.905 114.935C159.755 115.275 159.565 115.55 159.335 115.76C159.115 115.96 158.85 116.06 158.54 116.06C158.35 116.06 158.185 116.05 158.045 116.03C157.905 116.01 157.78 115.975 157.67 115.925L157.85 114.92C157.97 114.96 158.1 114.98 158.24 114.98C158.44 114.98 158.62 114.895 158.78 114.725C158.94 114.555 159.08 114.235 159.2 113.765C159.32 113.285 159.42 112.625 159.5 111.785C159.58 110.945 159.635 109.85 159.665 108.5H164.135V116H162.935V109.55ZM168.649 113.36L169.069 114.8H169.144L169.474 113.345L170.929 108.5H172.144L169.924 115.235C169.754 115.725 169.584 116.2 169.414 116.66C169.254 117.12 169.074 117.53 168.874 117.89C168.674 118.25 168.449 118.535 168.199 118.745C167.949 118.965 167.659 119.075 167.329 119.075C166.969 119.075 166.674 119.025 166.444 118.925L166.654 117.89C166.784 117.94 166.909 117.965 167.029 117.965C167.309 117.965 167.579 117.815 167.839 117.515C168.099 117.225 168.314 116.72 168.484 116L165.469 108.5H166.849L168.649 113.36ZM174.211 108.5V110.54C174.211 110.81 174.226 111.055 174.256 111.275C174.286 111.485 174.346 111.67 174.436 111.83C174.526 111.98 174.656 112.1 174.826 112.19C174.996 112.27 175.221 112.31 175.501 112.31C175.951 112.31 176.321 112.26 176.611 112.16C176.901 112.06 177.121 111.95 177.271 111.83V108.5H178.471V116H177.271V112.85C177.111 112.95 176.871 113.06 176.551 113.18C176.241 113.3 175.811 113.36 175.261 113.36C174.891 113.36 174.566 113.32 174.286 113.24C174.006 113.16 173.771 113.02 173.581 112.82C173.391 112.62 173.246 112.355 173.146 112.025C173.056 111.695 173.011 111.28 173.011 110.78V108.5H174.211ZM180.665 109.055C181.045 108.825 181.485 108.655 181.985 108.545C182.495 108.435 183.025 108.38 183.575 108.38C184.095 108.38 184.51 108.45 184.82 108.59C185.14 108.73 185.38 108.915 185.54 109.145C185.71 109.365 185.82 109.61 185.87 109.88C185.93 110.15 185.96 110.42 185.96 110.69C185.96 111.29 185.945 111.875 185.915 112.445C185.885 113.015 185.87 113.555 185.87 114.065C185.87 114.435 185.885 114.785 185.915 115.115C185.945 115.445 186 115.75 186.08 116.03H185.195L184.88 114.98H184.805C184.715 115.12 184.6 115.26 184.46 115.4C184.33 115.53 184.17 115.65 183.98 115.76C183.79 115.86 183.57 115.945 183.32 116.015C183.07 116.085 182.785 116.12 182.465 116.12C182.145 116.12 181.845 116.07 181.565 115.97C181.295 115.87 181.06 115.73 180.86 115.55C180.66 115.36 180.5 115.135 180.38 114.875C180.27 114.615 180.215 114.32 180.215 113.99C180.215 113.55 180.305 113.185 180.485 112.895C180.665 112.595 180.915 112.36 181.235 112.19C181.565 112.01 181.955 111.885 182.405 111.815C182.865 111.735 183.37 111.695 183.92 111.695C184.06 111.695 184.195 111.695 184.325 111.695C184.465 111.695 184.605 111.705 184.745 111.725C184.775 111.425 184.79 111.155 184.79 110.915C184.79 110.365 184.68 109.98 184.46 109.76C184.24 109.54 183.84 109.43 183.26 109.43C183.09 109.43 182.905 109.445 182.705 109.475C182.515 109.495 182.315 109.53 182.105 109.58C181.905 109.62 181.71 109.675 181.52 109.745C181.34 109.805 181.18 109.875 181.04 109.955L180.665 109.055ZM182.795 115.07C183.075 115.07 183.325 115.035 183.545 114.965C183.765 114.885 183.955 114.79 184.115 114.68C184.275 114.56 184.405 114.43 184.505 114.29C184.615 114.15 184.695 114.015 184.745 113.885V112.64C184.605 112.63 184.46 112.625 184.31 112.625C184.17 112.615 184.03 112.61 183.89 112.61C183.58 112.61 183.275 112.63 182.975 112.67C182.685 112.7 182.425 112.765 182.195 112.865C181.975 112.955 181.795 113.085 181.655 113.255C181.525 113.415 181.46 113.62 181.46 113.87C181.46 114.22 181.585 114.51 181.835 114.74C182.085 114.96 182.405 115.07 182.795 115.07ZM193.011 109.55H190.656V116H189.456V109.55H187.101V108.5H193.011V109.55ZM199.443 115.4C199.143 115.64 198.763 115.83 198.303 115.97C197.853 116.11 197.373 116.18 196.863 116.18C196.293 116.18 195.798 116.09 195.378 115.91C194.958 115.72 194.613 115.455 194.343 115.115C194.073 114.765 193.873 114.35 193.743 113.87C193.613 113.39 193.548 112.85 193.548 112.25C193.548 110.97 193.833 109.995 194.403 109.325C194.973 108.655 195.788 108.32 196.848 108.32C197.188 108.32 197.528 108.36 197.868 108.44C198.208 108.51 198.513 108.65 198.783 108.86C199.053 109.07 199.273 109.37 199.443 109.76C199.613 110.14 199.698 110.645 199.698 111.275C199.698 111.605 199.668 111.97 199.608 112.37H194.793C194.793 112.81 194.838 113.2 194.928 113.54C195.018 113.88 195.158 114.17 195.348 114.41C195.538 114.64 195.783 114.82 196.083 114.95C196.393 115.07 196.768 115.13 197.208 115.13C197.548 115.13 197.888 115.07 198.228 114.95C198.568 114.83 198.823 114.69 198.993 114.53L199.443 115.4ZM196.863 109.37C196.273 109.37 195.798 109.525 195.438 109.835C195.088 110.145 194.878 110.675 194.808 111.425H198.528C198.528 110.665 198.383 110.135 198.093 109.835C197.803 109.525 197.393 109.37 196.863 109.37ZM205.284 109.55H203.109C203.079 109.97 203.049 110.425 203.019 110.915C202.989 111.395 202.944 111.88 202.884 112.37C202.824 112.85 202.744 113.315 202.644 113.765C202.544 114.205 202.414 114.595 202.254 114.935C202.104 115.275 201.914 115.55 201.684 115.76C201.464 115.96 201.199 116.06 200.889 116.06C200.699 116.06 200.534 116.05 200.394 116.03C200.254 116.01 200.129 115.975 200.019 115.925L200.199 114.92C200.319 114.96 200.449 114.98 200.589 114.98C200.789 114.98 200.969 114.895 201.129 114.725C201.289 114.555 201.429 114.235 201.549 113.765C201.669 113.285 201.769 112.625 201.849 111.785C201.929 110.945 201.984 109.85 202.014 108.5H206.484V116H205.284V109.55ZM214.612 116.18C214.072 116.18 213.607 116.1 213.217 115.94C212.837 115.77 212.522 115.535 212.272 115.235C212.032 114.925 211.847 114.555 211.717 114.125C211.597 113.685 211.522 113.205 211.492 112.685H209.992V116H208.792V108.5H209.992V111.635H211.507C211.587 110.565 211.877 109.745 212.377 109.175C212.887 108.605 213.642 108.32 214.642 108.32C215.192 108.32 215.657 108.415 216.037 108.605C216.427 108.785 216.742 109.05 216.982 109.4C217.232 109.74 217.412 110.155 217.522 110.645C217.632 111.125 217.687 111.66 217.687 112.25C217.687 113.52 217.432 114.495 216.922 115.175C216.422 115.845 215.652 116.18 214.612 116.18ZM212.677 112.25C212.677 112.64 212.707 113.01 212.767 113.36C212.827 113.71 212.932 114.02 213.082 114.29C213.232 114.55 213.432 114.755 213.682 114.905C213.942 115.055 214.262 115.13 214.642 115.13C215.282 115.13 215.742 114.9 216.022 114.44C216.302 113.97 216.442 113.24 216.442 112.25C216.442 111.86 216.412 111.49 216.352 111.14C216.302 110.79 216.207 110.485 216.067 110.225C215.927 109.955 215.742 109.745 215.512 109.595C215.282 109.445 214.987 109.37 214.627 109.37C213.937 109.37 213.437 109.605 213.127 110.075C212.827 110.535 212.677 111.26 212.677 112.25Z" fill="black"/>
<defs>
<clipPath id="clip0_1_128">
<rect width="53" height="66" fill="white" transform="translate(20 43)"/>
</clipPath>
</defs>
</svg>
